<mxfile host="app.diagrams.net" modified="2021-09-10T05:25:38.665Z" agent="5.0 (Windows NT 10.0; Win64; x64) AppleWebKit/537.36 (KHTML, like Gecko) Chrome/93.0.4577.63 Safari/537.36" etag="Ft7VejQAOH8poq5g3GhN" version="15.1.4" type="github">
  <diagram id="J96ov2jG9Hy0pRNMdNvA" name="Page-1">
    <mxGraphModel dx="1038" dy="579" grid="1" gridSize="10" guides="1" tooltips="1" connect="1" arrows="1" fold="1" page="1" pageScale="1" pageWidth="850" pageHeight="1100" math="0" shadow="0">
      <root>
        <mxCell id="0" />
        <mxCell id="1" parent="0" />
        <mxCell id="ZkhHhyOHaORKebEW3R4b-1" value="Web &lt;br&gt;Application&lt;br&gt;&lt;br&gt;Front-End" style="rounded=0;whiteSpace=wrap;html=1;" vertex="1" parent="1">
          <mxGeometry x="10" y="180" width="70" height="160" as="geometry" />
        </mxCell>
      </root>
    </mxGraphModel>
  </diagram>
</mxfile>
